<svg width="22" height="21" viewBox="0 0 22 21" fill="none" xmlns="http://www.w3.org/2000/svg">
<path d="M8.86901 17.8394C8.86901 18.7734 9.65756 19.5291 10.6322 19.5291C11.6068 19.5291 12.3953 18.7734 12.3953 17.8394H8.86901ZM10.6322 5.09456C13.0776 5.09456 15.0622 6.99652 15.0622 9.34002V15.2837H6.20212V9.34002C6.20212 6.99652 8.18679 5.09456 10.6322 5.09456ZM10.6322 1.27364C9.89679 1.27364 9.30316 1.84253 9.30316 2.54728V3.54071C6.52109 4.1181 4.4301 6.49556 4.4301 9.34002V14.4346L2.65808 16.1328V16.9819H18.6063V16.1328L16.8342 14.4346V9.34002C16.8342 6.49556 14.7433 4.1181 11.9612 3.54071V2.54728C11.9612 1.84253 11.3676 1.27364 10.6322 1.27364ZM11.5182 6.79274H9.74616V9.34002H7.08813V11.0382H9.74616V13.5855H11.5182V11.0382H14.1762V9.34002H11.5182V6.79274Z" fill="#93969A"/>
</svg>
