<svg width="34" height="34" viewBox="0 0 34 34" fill="none" xmlns="http://www.w3.org/2000/svg">
<g clip-path="url(#clip0_162_5190)">
<path d="M17 2.83334C9.16587 2.83334 2.83337 9.16584 2.83337 17C2.83337 24.8342 9.16587 31.1667 17 31.1667C24.8342 31.1667 31.1667 24.8342 31.1667 17C31.1667 9.16584 24.8342 2.83334 17 2.83334ZM17 28.3333C10.7525 28.3333 5.66671 23.2475 5.66671 17C5.66671 10.7525 10.7525 5.66668 17 5.66668C23.2475 5.66668 28.3334 10.7525 28.3334 17C28.3334 23.2475 23.2475 28.3333 17 28.3333ZM22.0859 9.91668L17 15.0025L11.9142 9.91668L9.91671 11.9142L15.0025 17L9.91671 22.0858L11.9142 24.0833L17 18.9975L22.0859 24.0833L24.0834 22.0858L18.9975 17L24.0834 11.9142L22.0859 9.91668Z" fill="#F7F7F8"/>
</g>
<defs>
<clipPath id="clip0_162_5190">
<rect width="34" height="34" fill="white"/>
</clipPath>
</defs>
</svg>
