<svg width="21" height="24" viewBox="0 0 21 24" fill="none" xmlns="http://www.w3.org/2000/svg">
<circle cx="3.81393" cy="4.69134" r="2.25812" fill="#F7F7F8" stroke="#494C50" stroke-width="1.50542"/>
<path d="M13.5816 18.3868C12.3584 18.3868 11.2999 18.1222 10.4061 17.5929C9.52399 17.0519 8.84185 16.3051 8.35965 15.3525C7.87744 14.388 7.63634 13.2766 7.63634 12.0182C7.63634 10.748 7.87744 9.63658 8.35965 8.68394C8.84185 7.71953 9.52399 6.96682 10.4061 6.42581C11.2999 5.88481 12.3584 5.6143 13.5816 5.6143C15.0282 5.6143 16.2102 5.96713 17.1275 6.6728C18.0449 7.37846 18.627 8.36639 18.874 9.63658H16.7923C16.6277 8.91916 16.2748 8.34875 15.7338 7.92535C15.1928 7.50195 14.4695 7.29025 13.5639 7.29025C12.329 7.29025 11.3528 7.71365 10.6354 8.56045C9.91799 9.39548 9.55927 10.5481 9.55927 12.0182C9.55927 13.4766 9.91799 14.6233 10.6354 15.4583C11.3528 16.2933 12.329 16.7109 13.5639 16.7109C14.4695 16.7109 15.1928 16.5109 15.7338 16.111C16.2748 15.7112 16.6277 15.1643 16.7923 14.4704H18.874C18.627 15.6935 18.0449 16.6521 17.1275 17.346C16.2102 18.0399 15.0282 18.3868 13.5816 18.3868Z" fill="#494C50"/>
</svg>
