<svg width="97" height="32" viewBox="0 0 97 32" fill="none" xmlns="http://www.w3.org/2000/svg">
<g clip-path="url(#clip0_146_2033)">
<path d="M11.2096 19.4152C16.3332 19.4152 20.7937 15.553 21.1448 10.4423C21.1578 10.2148 21.1708 9.9937 21.1708 9.76612C21.1708 3.73219 16.6713 0 9.48004 0H0.955811V5.10413L9.12892 5.07812C12.9391 5.07812 14.8638 6.80768 14.8638 9.77263C14.8638 12.7376 12.9391 14.4671 9.12892 14.4671H6.61262L6.73616 19.4217H11.2096V19.4152Z" fill="#4AC384"/>
<path d="M6.74266 19.4152H0.955811V27.4973H6.74266V19.4152Z" fill="white"/>
<path d="M6.74266 0H0V5.10413H6.74266V0Z" fill="white"/>
</g>
<path d="M32.179 27.251V10.5831H38.3461C39.6796 10.5831 40.7828 10.8053 41.6559 11.2498C42.529 11.6943 43.1798 12.3054 43.6084 13.0833C44.037 13.8611 44.2513 14.7342 44.2513 15.7025C44.2513 16.6232 44.045 17.4725 43.6322 18.2503C43.2195 19.0123 42.5766 19.6314 41.7035 20.1076C40.8304 20.568 39.7113 20.7981 38.3461 20.7981H35.2268V27.251H32.179ZM35.2268 18.3218H38.1556C39.2192 18.3218 39.9812 18.0916 40.4415 17.6312C40.9177 17.155 41.1559 16.5121 41.1559 15.7025C41.1559 14.8771 40.9177 14.2342 40.4415 13.7738C39.9812 13.2976 39.2192 13.0595 38.1556 13.0595H35.2268V18.3218ZM51.6336 27.5367C50.4906 27.5367 49.4588 27.2748 48.5381 26.751C47.6333 26.2271 46.911 25.5048 46.3713 24.5841C45.8474 23.6476 45.5855 22.5681 45.5855 21.3458C45.5855 20.1235 45.8554 19.052 46.3951 18.1313C46.9348 17.1947 47.6571 16.4645 48.5619 15.9406C49.4826 15.4168 50.5144 15.1549 51.6574 15.1549C52.7845 15.1549 53.8004 15.4168 54.7052 15.9406C55.6259 16.4645 56.3482 17.1947 56.8721 18.1313C57.4118 19.052 57.6817 20.1235 57.6817 21.3458C57.6817 22.5681 57.4118 23.6476 56.8721 24.5841C56.3482 25.5048 55.6259 26.2271 54.7052 26.751C53.7845 27.2748 52.7606 27.5367 51.6336 27.5367ZM51.6336 24.8937C52.4273 24.8937 53.1178 24.6 53.7052 24.0127C54.2925 23.4094 54.5862 22.5205 54.5862 21.3458C54.5862 20.1711 54.2925 19.2901 53.7052 18.7027C53.1178 18.0995 52.4352 17.7979 51.6574 17.7979C50.8478 17.7979 50.1493 18.0995 49.562 18.7027C48.9905 19.2901 48.7048 20.1711 48.7048 21.3458C48.7048 22.5205 48.9905 23.4094 49.562 24.0127C50.1493 24.6 50.8399 24.8937 51.6336 24.8937ZM60.4068 27.251V15.4406H63.1212L63.407 17.655C63.8356 16.8931 64.415 16.2899 65.1452 15.8454C65.8913 15.385 66.7644 15.1549 67.7644 15.1549V18.3694H66.9072C66.2405 18.3694 65.6452 18.4726 65.1214 18.6789C64.5975 18.8853 64.1848 19.2425 63.8832 19.7504C63.5975 20.2584 63.4546 20.9648 63.4546 21.8696V27.251H60.4068ZM75.1099 27.251C73.8717 27.251 72.8795 26.9494 72.1335 26.3462C71.3874 25.743 71.0143 24.6714 71.0143 23.1316V17.9884H68.9904V15.4406H71.0143L71.3715 12.2737H74.0622V15.4406H77.2529V17.9884H74.0622V23.1555C74.0622 23.7269 74.1812 24.1238 74.4193 24.346C74.6733 24.5524 75.1019 24.6556 75.7052 24.6556H77.1815V27.251H75.1099ZM83.9415 27.5367C82.9255 27.5367 82.0921 27.378 81.4413 27.0605C80.7904 26.7272 80.3063 26.2906 79.9888 25.7509C79.6713 25.2112 79.5125 24.6159 79.5125 23.965C79.5125 22.8697 79.9412 21.9808 80.7984 21.2982C81.6556 20.6156 82.9414 20.2743 84.6558 20.2743H87.656V19.9886C87.656 19.179 87.4258 18.5837 86.9655 18.2027C86.5051 17.8217 85.9337 17.6312 85.2511 17.6312C84.632 17.6312 84.0923 17.782 83.6319 18.0836C83.1716 18.3694 82.8858 18.798 82.7747 19.3695H79.7983C79.8777 18.5123 80.1634 17.7662 80.6555 17.1312C81.1635 16.4962 81.8143 16.0121 82.608 15.6787C83.4017 15.3295 84.2907 15.1549 85.2749 15.1549C86.9576 15.1549 88.2831 15.5755 89.2514 16.4169C90.2197 17.2582 90.7039 18.4488 90.7039 19.9886V27.251H88.1084L87.8227 25.3461C87.4735 25.9811 86.9814 26.5049 86.3464 26.9176C85.7273 27.3304 84.9257 27.5367 83.9415 27.5367ZM84.632 25.1556C85.5051 25.1556 86.1797 24.8699 86.6559 24.2984C87.148 23.7269 87.4576 23.0205 87.5846 22.1792H84.9892C84.1796 22.1792 83.6002 22.33 83.2509 22.6316C82.9017 22.9173 82.7271 23.2745 82.7271 23.7031C82.7271 24.1635 82.9017 24.5206 83.2509 24.7746C83.6002 25.0286 84.0605 25.1556 84.632 25.1556ZM93.6124 27.251V10.1069H96.6602V27.251H93.6124Z" fill="white"/>
<defs>
<clipPath id="clip0_146_2033">
<rect width="21.1708" height="27.4973" fill="white"/>
</clipPath>
</defs>
</svg>
