<svg width="22" height="23" viewBox="0 0 22 23" fill="none" xmlns="http://www.w3.org/2000/svg">
<g clip-path="url(#clip0_146_3847)">
<path d="M16.2889 10.673C16.2889 11.2793 16.2889 11.8765 16.2889 12.4829C17.3749 12.4829 18.7866 12.4829 19.9087 12.4829C19.9087 11.8765 19.9087 11.2793 19.9087 10.673C18.7866 10.673 17.3749 10.673 16.2889 10.673Z" fill="#4AC384"/>
<path d="M14.4791 16.6547C15.3479 17.2972 16.4791 18.1478 17.3749 18.8175C17.7369 18.3378 18.0989 17.8492 18.4609 17.3696C17.565 16.6999 16.4338 15.8493 15.5651 15.1977C15.2031 15.6864 14.8411 16.175 14.4791 16.6547Z" fill="#4AC384"/>
<path d="M18.4609 5.78629C18.0989 5.30667 17.7369 4.818 17.3749 4.33838C16.4791 5.00804 15.3479 5.85868 14.4791 6.51024C14.8411 6.98986 15.2031 7.47853 15.5651 7.95815C16.4338 7.30659 17.565 6.46499 18.4609 5.78629Z" fill="#4AC384"/>
<path d="M3.61982 8.86314C2.62439 8.86314 1.80994 9.67759 1.80994 10.673V12.4829C1.80994 13.4784 2.62439 14.2928 3.61982 14.2928H4.52477V17.9126H6.33465V14.2928H7.23959L11.7643 17.0076V6.14832L7.23959 8.86314H3.61982ZM8.17169 10.4106L9.95442 9.34276V13.8132L8.17169 12.7453L7.73731 12.4829H7.23959H3.61982V10.673H7.23959H7.73731L8.17169 10.4106Z" fill="#4AC384"/>
<path d="M14.0266 11.5779C14.0266 10.3744 13.5017 9.28844 12.6692 8.54639V14.6005C13.5017 13.8675 14.0266 12.7815 14.0266 11.5779Z" fill="#4AC384"/>
</g>
<defs>
<clipPath id="clip0_146_3847">
<rect width="21.7186" height="21.7186" fill="white" transform="translate(0 0.718628)"/>
</clipPath>
</defs>
</svg>
