<svg width="19" height="18" viewBox="0 0 19 18" fill="none" xmlns="http://www.w3.org/2000/svg">
<g clip-path="url(#clip0_146_2087)">
<path d="M13.3921 6.45849L9.13177 2.56009L4.87144 6.45849C3.69722 7.53486 3.11011 8.97002 3.11011 10.35C3.11011 11.73 3.69722 13.1858 4.87144 14.2622C6.04567 15.3386 7.58872 15.8836 9.13177 15.8836C10.6748 15.8836 12.2179 15.3386 13.3921 14.2622C14.5663 13.1858 15.1534 11.73 15.1534 10.35C15.1534 8.97002 14.5663 7.53486 13.3921 6.45849ZM4.61552 10.5984C4.62305 9.21842 5.0822 8.34214 5.94029 7.56246L9.13177 4.57484L12.3232 7.59696C13.1813 8.36974 13.6405 9.21842 13.648 10.5984H4.61552Z" fill="#2C2E32"/>
</g>
<defs>
<clipPath id="clip0_146_2087">
<rect width="18.065" height="16.5596" fill="white" transform="translate(0.0992432 0.938644)"/>
</clipPath>
</defs>
</svg>
