<svg width="91" height="91" viewBox="0 0 91 91" fill="none" xmlns="http://www.w3.org/2000/svg">
<g clip-path="url(#clip0_146_2095)">
<path d="M45.5 13.3989C55.3228 13.3989 63.9037 20.3991 65.8231 30.0714L66.9521 35.7167L72.6727 36.1307C78.5438 36.5447 83.1354 41.4373 83.1354 47.2708C83.1354 53.4806 78.0546 58.5614 71.8447 58.5614H22.9188C14.6013 58.5614 7.8646 51.8246 7.8646 43.5072C7.8646 35.792 13.6228 29.3563 21.2628 28.566L25.2898 28.152L27.1715 24.5766C30.7093 17.6894 37.7471 13.3989 45.5 13.3989ZM45.5 5.87184C34.6234 5.87184 25.1392 12.044 20.4348 21.0765C9.1442 22.2809 0.337524 31.8779 0.337524 43.5072C0.337524 55.9645 10.4614 66.0884 22.9188 66.0884H71.8447C82.2321 66.0884 90.6624 57.6581 90.6624 47.2708C90.6624 37.335 82.9472 29.281 73.1996 28.6036C70.6028 15.6194 59.1993 5.87184 45.5 5.87184Z" fill="#ECEDEE"/>
<path d="M25.9296 71.3574L19.1553 81.1426" stroke="#6ECF9D" stroke-width="3.76354" stroke-linecap="round" stroke-linejoin="round"/>
<path d="M45.5 69.0993L38.7256 78.8845" stroke="#6ECF9D" stroke-width="3.76354" stroke-linecap="round" stroke-linejoin="round"/>
<path d="M59.8015 71.3574L53.0271 81.1426" stroke="#6ECF9D" stroke-width="3.76354" stroke-linecap="round" stroke-linejoin="round"/>
</g>
<defs>
<clipPath id="clip0_146_2095">
<rect width="90.3249" height="90.3249" fill="white" transform="translate(0.337524 0.60289)"/>
</clipPath>
</defs>
</svg>
