<svg width="22" height="22" viewBox="0 0 22 22" fill="none" xmlns="http://www.w3.org/2000/svg">
<path d="M13.7332 12.4041H13.0333L12.7852 12.1649C13.6535 11.1549 14.1762 9.84358 14.1762 8.4171C14.1762 5.23633 11.5979 2.65804 8.41715 2.65804C5.23637 2.65804 2.65808 5.23633 2.65808 8.4171C2.65808 11.5979 5.23637 14.1762 8.41715 14.1762C9.84362 14.1762 11.1549 13.6534 12.165 12.7851L12.4042 13.0332V13.7332L16.8342 18.1544L18.1544 16.8342L13.7332 12.4041V12.4041ZM8.41715 12.4041C6.21098 12.4041 4.4301 10.6233 4.4301 8.4171C4.4301 6.21094 6.21098 4.43006 8.41715 4.43006C10.6233 4.43006 12.4042 6.21094 12.4042 8.4171C12.4042 10.6233 10.6233 12.4041 8.41715 12.4041Z" fill="#A2A4A9"/>
</svg>
