<svg width="16" height="15" viewBox="0 0 16 15" fill="none" xmlns="http://www.w3.org/2000/svg">
<g clip-path="url(#clip0_146_3859)">
<path d="M7.9256 1.26355C4.59541 1.26355 1.89868 3.96631 1.89868 7.2965C1.89868 10.6267 4.59541 13.3295 7.9256 13.3295C11.2618 13.3295 13.9646 10.6267 13.9646 7.2965C13.9646 3.96631 11.2618 1.26355 7.9256 1.26355ZM7.93163 12.1229C5.26507 12.1229 3.10527 9.96307 3.10527 7.2965C3.10527 4.62994 5.26507 2.47014 7.93163 2.47014C10.5982 2.47014 12.758 4.62994 12.758 7.2965C12.758 9.96307 10.5982 12.1229 7.93163 12.1229ZM8.23328 4.28003H7.32834V7.8998L10.4956 9.80018L10.9481 9.05812L8.23328 7.44733V4.28003Z" fill="#4AC384"/>
</g>
<defs>
<clipPath id="clip0_146_3859">
<rect width="14.4791" height="14.4791" fill="white" transform="translate(0.692017 0.0570068)"/>
</clipPath>
</defs>
</svg>
